<?xml version="1.0" standalone="no"?>
<!DOCTYPE svg PUBLIC "-//W3C//DTD SVG 20010904//EN"
 "http://www.w3.org/TR/2001/REC-SVG-20010904/DTD/svg10.dtd">
<svg version="1.0" xmlns="http://www.w3.org/2000/svg"
 width="512.000000pt" height="512.000000pt" viewBox="0 0 512.000000 512.000000"
 preserveAspectRatio="xMidYMid meet">

<g transform="translate(0.000000,512.000000) scale(0.100000,-0.100000)"
fill="#000000" stroke="none">
<path d="M1741 4286 c-382 -382 -385 -385 -357 -396 39 -15 1456 -14 1489 1
14 6 30 22 36 36 15 32 15 354 0 386 -18 40 -50 47 -198 47 l-139 0 -28 57
c-66 131 -221 240 -357 250 l-62 5 -384 -386z m436 152 c51 -48 15 -138 -56
-138 -47 0 -81 32 -81 79 0 72 84 109 137 59z"/>
<path d="M1458 3183 l-189 -188 -58 63 c-44 46 -65 62 -85 62 -38 0 -61 -15
-75 -48 -16 -39 -5 -62 78 -159 76 -88 110 -107 166 -91 20 5 103 81 249 227
213 214 219 221 212 253 -8 41 -39 68 -79 68 -27 0 -57 -26 -219 -187z"/>
<path d="M1989 3031 c-16 -16 -29 -39 -29 -51 0 -12 13 -35 29 -51 l29 -29
576 0 c406 0 582 3 600 11 35 16 52 61 37 98 -7 15 -24 33 -37 40 -18 8 -194
11 -600 11 l-576 0 -29 -29z"/>
<path d="M1458 2383 l-189 -188 -58 63 c-44 46 -65 62 -85 62 -38 0 -61 -15
-75 -48 -16 -39 -5 -62 78 -159 76 -88 110 -107 166 -91 20 5 103 81 249 227
213 214 219 221 212 253 -8 41 -39 68 -79 68 -27 0 -57 -26 -219 -187z"/>
<path d="M1989 2231 c-16 -16 -29 -39 -29 -51 0 -12 13 -35 29 -51 l29 -29
576 0 c352 0 585 4 601 10 30 12 48 53 40 92 -13 58 -8 58 -640 58 l-577 0
-29 -29z"/>
<path d="M3256 1551 l-470 -470 18 -63 c25 -91 99 -227 160 -294 l53 -58 40
34 c275 234 690 241 981 16 l71 -55 38 42 c281 306 279 778 -5 1079 -100 106
-210 175 -346 217 -37 11 -69 21 -70 21 0 0 -212 -211 -470 -469z m419 45 c58
-27 108 -74 138 -131 29 -54 31 -193 3 -245 -25 -49 -84 -108 -131 -133 -57
-31 -193 -31 -250 0 -130 70 -187 216 -138 358 21 62 93 136 154 158 68 24
164 21 224 -7z"/>
<path d="M1538 1503 l-189 -188 -57 63 c-60 64 -88 75 -131 52 -27 -14 -44
-61 -33 -91 18 -46 146 -183 182 -195 63 -21 82 -7 314 225 213 214 219 221
212 253 -8 41 -39 68 -79 68 -27 0 -56 -26 -219 -187z"/>
<path d="M1989 1391 c-16 -16 -29 -39 -29 -51 0 -12 13 -35 29 -51 l29 -29
375 0 374 0 7 65 c4 36 9 72 12 80 5 13 -40 15 -381 15 l-387 0 -29 -29z"/>
</g>
</svg>
